<svg xmlns="http://www.w3.org/2000/svg" xmlns:xlink="http://www.w3.org/1999/xlink" width="600" height="400" viewBox="0 0 2400 1600">
<defs>
  <clipPath id="clip490">
    <rect x="0" y="0" width="2400" height="1600"></rect>
  </clipPath>
</defs>
<path clip-path="url(#clip490)" d="M0 1600 L2400 1600 L2400 0 L0 0  Z" fill="#ffffff" fill-rule="evenodd" fill-opacity="1"></path>
<defs>
  <clipPath id="clip491">
    <rect x="480" y="0" width="1681" height="1600"></rect>
  </clipPath>
</defs>
<path clip-path="url(#clip490)" d="M223.505 1473.49 L2352.76 1473.49 L2352.76 47.2441 L223.505 47.2441  Z" fill="#ffffff" fill-rule="evenodd" fill-opacity="1"></path>
<defs>
  <clipPath id="clip492">
    <rect x="223" y="47" width="2130" height="1427"></rect>
  </clipPath>
</defs>
<polyline clip-path="url(#clip492)" style="stroke:#000000; stroke-linecap:round; stroke-linejoin:round; stroke-width:2; stroke-opacity:0.1; fill:none" points="223.505,1473.49 223.505,47.2441 "></polyline>
<polyline clip-path="url(#clip492)" style="stroke:#000000; stroke-linecap:round; stroke-linejoin:round; stroke-width:2; stroke-opacity:0.1; fill:none" points="755.818,1473.49 755.818,47.2441 "></polyline>
<polyline clip-path="url(#clip492)" style="stroke:#000000; stroke-linecap:round; stroke-linejoin:round; stroke-width:2; stroke-opacity:0.1; fill:none" points="1288.13,1473.49 1288.13,47.2441 "></polyline>
<polyline clip-path="url(#clip492)" style="stroke:#000000; stroke-linecap:round; stroke-linejoin:round; stroke-width:2; stroke-opacity:0.1; fill:none" points="1820.44,1473.49 1820.44,47.2441 "></polyline>
<polyline clip-path="url(#clip492)" style="stroke:#000000; stroke-linecap:round; stroke-linejoin:round; stroke-width:2; stroke-opacity:0.1; fill:none" points="2352.76,1473.49 2352.76,47.2441 "></polyline>
<polyline clip-path="url(#clip492)" style="stroke:#000000; stroke-linecap:round; stroke-linejoin:round; stroke-width:2; stroke-opacity:0.1; fill:none" points="223.505,1473.49 2352.76,1473.49 "></polyline>
<polyline clip-path="url(#clip492)" style="stroke:#000000; stroke-linecap:round; stroke-linejoin:round; stroke-width:2; stroke-opacity:0.1; fill:none" points="223.505,1149.34 2352.76,1149.34 "></polyline>
<polyline clip-path="url(#clip492)" style="stroke:#000000; stroke-linecap:round; stroke-linejoin:round; stroke-width:2; stroke-opacity:0.1; fill:none" points="223.505,825.195 2352.76,825.195 "></polyline>
<polyline clip-path="url(#clip492)" style="stroke:#000000; stroke-linecap:round; stroke-linejoin:round; stroke-width:2; stroke-opacity:0.1; fill:none" points="223.505,501.049 2352.76,501.049 "></polyline>
<polyline clip-path="url(#clip492)" style="stroke:#000000; stroke-linecap:round; stroke-linejoin:round; stroke-width:2; stroke-opacity:0.1; fill:none" points="223.505,176.903 2352.76,176.903 "></polyline>
<polyline clip-path="url(#clip490)" style="stroke:#000000; stroke-linecap:round; stroke-linejoin:round; stroke-width:4; stroke-opacity:1; fill:none" points="223.505,1473.49 2352.76,1473.49 "></polyline>
<polyline clip-path="url(#clip490)" style="stroke:#000000; stroke-linecap:round; stroke-linejoin:round; stroke-width:4; stroke-opacity:1; fill:none" points="223.505,1473.49 223.505,1454.59 "></polyline>
<polyline clip-path="url(#clip490)" style="stroke:#000000; stroke-linecap:round; stroke-linejoin:round; stroke-width:4; stroke-opacity:1; fill:none" points="755.818,1473.49 755.818,1454.59 "></polyline>
<polyline clip-path="url(#clip490)" style="stroke:#000000; stroke-linecap:round; stroke-linejoin:round; stroke-width:4; stroke-opacity:1; fill:none" points="1288.13,1473.49 1288.13,1454.59 "></polyline>
<polyline clip-path="url(#clip490)" style="stroke:#000000; stroke-linecap:round; stroke-linejoin:round; stroke-width:4; stroke-opacity:1; fill:none" points="1820.44,1473.49 1820.44,1454.59 "></polyline>
<polyline clip-path="url(#clip490)" style="stroke:#000000; stroke-linecap:round; stroke-linejoin:round; stroke-width:4; stroke-opacity:1; fill:none" points="2352.76,1473.49 2352.76,1454.59 "></polyline>
<path clip-path="url(#clip490)" d="M181.921 1528.95 L222.725 1528.95 L222.725 1534.36 L181.921 1534.36 L181.921 1528.95 Z" fill="#000000" fill-rule="nonzero" fill-opacity="1"></path><path clip-path="url(#clip490)" d="M237.716 1546.68 L248.22 1546.68 L248.22 1510.42 L236.793 1512.72 L236.793 1506.86 L248.156 1504.57 L254.585 1504.57 L254.585 1546.68 L265.089 1546.68 L265.089 1552.09 L237.716 1552.09 L237.716 1546.68 Z" fill="#000000" fill-rule="nonzero" fill-opacity="1"></path><path clip-path="url(#clip490)" d="M755.818 1508.8 Q750.852 1508.8 748.338 1513.7 Q745.855 1518.57 745.855 1528.38 Q745.855 1538.15 748.338 1543.05 Q750.852 1547.92 755.818 1547.92 Q760.815 1547.92 763.297 1543.05 Q765.812 1538.15 765.812 1528.38 Q765.812 1518.57 763.297 1513.7 Q760.815 1508.8 755.818 1508.8 M755.818 1503.71 Q763.806 1503.71 768.008 1510.04 Q772.241 1516.34 772.241 1528.38 Q772.241 1540.37 768.008 1546.71 Q763.806 1553.01 755.818 1553.01 Q747.829 1553.01 743.595 1546.71 Q739.394 1540.37 739.394 1528.38 Q739.394 1516.34 743.595 1510.04 Q747.829 1503.71 755.818 1503.71 Z" fill="#000000" fill-rule="nonzero" fill-opacity="1"></path><path clip-path="url(#clip490)" d="M1274.91 1546.68 L1285.41 1546.68 L1285.41 1510.42 L1273.98 1512.72 L1273.98 1506.86 L1285.35 1504.57 L1291.77 1504.57 L1291.77 1546.68 L1302.28 1546.68 L1302.28 1552.09 L1274.91 1552.09 L1274.91 1546.68 Z" fill="#000000" fill-rule="nonzero" fill-opacity="1"></path><path clip-path="url(#clip490)" d="M1813.09 1546.68 L1835.53 1546.68 L1835.53 1552.09 L1805.36 1552.09 L1805.36 1546.68 Q1809.02 1542.89 1815.32 1536.52 Q1821.65 1530.13 1823.28 1528.28 Q1826.36 1524.81 1827.57 1522.42 Q1828.81 1520 1828.81 1517.68 Q1828.81 1513.89 1826.14 1511.51 Q1823.5 1509.12 1819.23 1509.12 Q1816.21 1509.12 1812.84 1510.17 Q1809.49 1511.22 1805.67 1513.35 L1805.67 1506.86 Q1809.56 1505.3 1812.93 1504.5 Q1816.31 1503.71 1819.11 1503.71 Q1826.49 1503.71 1830.88 1507.4 Q1835.28 1511.09 1835.28 1517.27 Q1835.28 1520.2 1834.16 1522.84 Q1833.08 1525.45 1830.18 1529.01 Q1829.39 1529.94 1825.12 1534.36 Q1820.86 1538.75 1813.09 1546.68 Z" fill="#000000" fill-rule="nonzero" fill-opacity="1"></path><path clip-path="url(#clip490)" d="M2358.6 1526.47 Q2363.21 1527.45 2365.79 1530.57 Q2368.4 1533.69 2368.4 1538.27 Q2368.4 1545.31 2363.56 1549.16 Q2358.72 1553.01 2349.81 1553.01 Q2346.82 1553.01 2343.64 1552.41 Q2340.49 1551.83 2337.11 1550.66 L2337.11 1544.45 Q2339.79 1546.01 2342.97 1546.8 Q2346.15 1547.6 2349.62 1547.6 Q2355.67 1547.6 2358.82 1545.21 Q2362 1542.83 2362 1538.27 Q2362 1534.07 2359.04 1531.72 Q2356.11 1529.33 2350.86 1529.33 L2345.32 1529.33 L2345.32 1524.05 L2351.12 1524.05 Q2355.86 1524.05 2358.37 1522.17 Q2360.89 1520.26 2360.89 1516.69 Q2360.89 1513.03 2358.28 1511.09 Q2355.7 1509.12 2350.86 1509.12 Q2348.22 1509.12 2345.2 1509.69 Q2342.17 1510.27 2338.54 1511.47 L2338.54 1505.75 Q2342.2 1504.73 2345.39 1504.22 Q2348.6 1503.71 2351.44 1503.71 Q2358.76 1503.71 2363.02 1507.05 Q2367.29 1510.36 2367.29 1516.03 Q2367.29 1519.97 2365.03 1522.71 Q2362.77 1525.42 2358.6 1526.47 Z" fill="#000000" fill-rule="nonzero" fill-opacity="1"></path><polyline clip-path="url(#clip490)" style="stroke:#000000; stroke-linecap:round; stroke-linejoin:round; stroke-width:4; stroke-opacity:1; fill:none" points="223.505,1473.49 223.505,47.2441 "></polyline>
<polyline clip-path="url(#clip490)" style="stroke:#000000; stroke-linecap:round; stroke-linejoin:round; stroke-width:4; stroke-opacity:1; fill:none" points="223.505,1473.49 242.402,1473.49 "></polyline>
<polyline clip-path="url(#clip490)" style="stroke:#000000; stroke-linecap:round; stroke-linejoin:round; stroke-width:4; stroke-opacity:1; fill:none" points="223.505,1149.34 242.402,1149.34 "></polyline>
<polyline clip-path="url(#clip490)" style="stroke:#000000; stroke-linecap:round; stroke-linejoin:round; stroke-width:4; stroke-opacity:1; fill:none" points="223.505,825.195 242.402,825.195 "></polyline>
<polyline clip-path="url(#clip490)" style="stroke:#000000; stroke-linecap:round; stroke-linejoin:round; stroke-width:4; stroke-opacity:1; fill:none" points="223.505,501.049 242.402,501.049 "></polyline>
<polyline clip-path="url(#clip490)" style="stroke:#000000; stroke-linecap:round; stroke-linejoin:round; stroke-width:4; stroke-opacity:1; fill:none" points="223.505,176.903 242.402,176.903 "></polyline>
<path clip-path="url(#clip490)" d="M67.4156 1453.96 Q62.4504 1453.96 59.9359 1458.86 Q57.4533 1463.73 57.4533 1473.54 Q57.4533 1483.31 59.9359 1488.21 Q62.4504 1493.08 67.4156 1493.08 Q72.4127 1493.08 74.8954 1488.21 Q77.4098 1483.31 77.4098 1473.54 Q77.4098 1463.73 74.8954 1458.86 Q72.4127 1453.96 67.4156 1453.96 M67.4156 1448.87 Q75.4046 1448.87 79.606 1455.2 Q83.8392 1461.5 83.8392 1473.54 Q83.8392 1485.53 79.606 1491.87 Q75.4046 1498.17 67.4156 1498.17 Q59.4267 1498.17 55.1935 1491.87 Q50.9921 1485.53 50.9921 1473.54 Q50.9921 1461.5 55.1935 1455.2 Q59.4267 1448.87 67.4156 1448.87 Z" fill="#000000" fill-rule="nonzero" fill-opacity="1"></path><path clip-path="url(#clip490)" d="M95.1383 1489.16 L101.854 1489.16 L101.854 1497.25 L95.1383 1497.25 L95.1383 1489.16 Z" fill="#000000" fill-rule="nonzero" fill-opacity="1"></path><path clip-path="url(#clip490)" d="M129.609 1453.96 Q124.643 1453.96 122.129 1458.86 Q119.646 1463.73 119.646 1473.54 Q119.646 1483.31 122.129 1488.21 Q124.643 1493.08 129.609 1493.08 Q134.606 1493.08 137.088 1488.21 Q139.603 1483.31 139.603 1473.54 Q139.603 1463.73 137.088 1458.86 Q134.606 1453.96 129.609 1453.96 M129.609 1448.87 Q137.598 1448.87 141.799 1455.2 Q146.032 1461.5 146.032 1473.54 Q146.032 1485.53 141.799 1491.87 Q137.598 1498.17 129.609 1498.17 Q121.62 1498.17 117.386 1491.87 Q113.185 1485.53 113.185 1473.54 Q113.185 1461.5 117.386 1455.2 Q121.62 1448.87 129.609 1448.87 Z" fill="#000000" fill-rule="nonzero" fill-opacity="1"></path><path clip-path="url(#clip490)" d="M171.081 1453.96 Q166.116 1453.96 163.601 1458.86 Q161.119 1463.73 161.119 1473.54 Q161.119 1483.31 163.601 1488.21 Q166.116 1493.08 171.081 1493.08 Q176.078 1493.08 178.561 1488.21 Q181.075 1483.31 181.075 1473.54 Q181.075 1463.73 178.561 1458.86 Q176.078 1453.96 171.081 1453.96 M171.081 1448.87 Q179.07 1448.87 183.272 1455.2 Q187.505 1461.5 187.505 1473.54 Q187.505 1485.53 183.272 1491.87 Q179.07 1498.17 171.081 1498.17 Q163.092 1498.17 158.859 1491.87 Q154.658 1485.53 154.658 1473.54 Q154.658 1461.5 158.859 1455.2 Q163.092 1448.87 171.081 1448.87 Z" fill="#000000" fill-rule="nonzero" fill-opacity="1"></path><path clip-path="url(#clip490)" d="M68.7843 1129.81 Q63.819 1129.81 61.3046 1134.72 Q58.8219 1139.59 58.8219 1149.39 Q58.8219 1159.16 61.3046 1164.06 Q63.819 1168.93 68.7843 1168.93 Q73.7814 1168.93 76.264 1164.06 Q78.7784 1159.16 78.7784 1149.39 Q78.7784 1139.59 76.264 1134.72 Q73.7814 1129.81 68.7843 1129.81 M68.7843 1124.72 Q76.7732 1124.72 80.9746 1131.06 Q85.2078 1137.36 85.2078 1149.39 Q85.2078 1161.39 80.9746 1167.72 Q76.7732 1174.02 68.7843 1174.02 Q60.7953 1174.02 56.5621 1167.72 Q52.3608 1161.39 52.3608 1149.39 Q52.3608 1137.36 56.5621 1131.06 Q60.7953 1124.72 68.7843 1124.72 Z" fill="#000000" fill-rule="nonzero" fill-opacity="1"></path><path clip-path="url(#clip490)" d="M96.5069 1165.02 L103.223 1165.02 L103.223 1173.1 L96.5069 1173.1 L96.5069 1165.02 Z" fill="#000000" fill-rule="nonzero" fill-opacity="1"></path><path clip-path="url(#clip490)" d="M122.765 1167.69 L145.205 1167.69 L145.205 1173.1 L115.031 1173.1 L115.031 1167.69 Q118.691 1163.9 124.993 1157.54 Q131.327 1151.14 132.951 1149.29 Q136.038 1145.82 137.247 1143.44 Q138.489 1141.02 138.489 1138.69 Q138.489 1134.91 135.815 1132.52 Q133.173 1130.13 128.908 1130.13 Q125.885 1130.13 122.511 1131.18 Q119.169 1132.23 115.349 1134.37 L115.349 1127.87 Q119.233 1126.31 122.606 1125.52 Q125.98 1124.72 128.781 1124.72 Q136.165 1124.72 140.558 1128.41 Q144.95 1132.11 144.95 1138.28 Q144.95 1141.21 143.836 1143.85 Q142.754 1146.46 139.857 1150.03 Q139.062 1150.95 134.797 1155.37 Q130.532 1159.77 122.765 1167.69 Z" fill="#000000" fill-rule="nonzero" fill-opacity="1"></path><path clip-path="url(#clip490)" d="M158.764 1125.58 L184.004 1125.58 L184.004 1130.99 L164.652 1130.99 L164.652 1142.64 Q166.052 1142.16 167.453 1141.94 Q168.853 1141.69 170.254 1141.69 Q178.211 1141.69 182.858 1146.05 Q187.505 1150.41 187.505 1157.86 Q187.505 1165.53 182.73 1169.79 Q177.956 1174.02 169.267 1174.02 Q166.275 1174.02 163.156 1173.52 Q160.069 1173.01 156.758 1171.99 L156.758 1165.53 Q159.623 1167.09 162.678 1167.85 Q165.734 1168.61 169.14 1168.61 Q174.646 1168.61 177.861 1165.72 Q181.075 1162.82 181.075 1157.86 Q181.075 1152.89 177.861 1149.99 Q174.646 1147.1 169.14 1147.1 Q166.562 1147.1 163.983 1147.67 Q161.437 1148.24 158.764 1149.45 L158.764 1125.58 Z" fill="#000000" fill-rule="nonzero" fill-opacity="1"></path><path clip-path="url(#clip490)" d="M67.4156 805.668 Q62.4504 805.668 59.9359 810.57 Q57.4533 815.44 57.4533 825.243 Q57.4533 835.014 59.9359 839.916 Q62.4504 844.786 67.4156 844.786 Q72.4127 844.786 74.8954 839.916 Q77.4098 835.014 77.4098 825.243 Q77.4098 815.44 74.8954 810.57 Q72.4127 805.668 67.4156 805.668 M67.4156 800.576 Q75.4046 800.576 79.606 806.91 Q83.8392 813.212 83.8392 825.243 Q83.8392 837.242 79.606 843.576 Q75.4046 849.878 67.4156 849.878 Q59.4267 849.878 55.1935 843.576 Q50.9921 837.242 50.9921 825.243 Q50.9921 813.212 55.1935 806.91 Q59.4267 800.576 67.4156 800.576 Z" fill="#000000" fill-rule="nonzero" fill-opacity="1"></path><path clip-path="url(#clip490)" d="M95.1383 840.871 L101.854 840.871 L101.854 848.955 L95.1383 848.955 L95.1383 840.871 Z" fill="#000000" fill-rule="nonzero" fill-opacity="1"></path><path clip-path="url(#clip490)" d="M115.922 801.435 L141.162 801.435 L141.162 806.846 L121.811 806.846 L121.811 818.495 Q123.211 818.018 124.612 817.795 Q126.012 817.54 127.412 817.54 Q135.37 817.54 140.017 821.901 Q144.663 826.262 144.663 833.709 Q144.663 841.38 139.889 845.645 Q135.115 849.878 126.426 849.878 Q123.434 849.878 120.315 849.369 Q117.227 848.86 113.917 847.841 L113.917 841.38 Q116.782 842.94 119.837 843.704 Q122.893 844.467 126.298 844.467 Q131.805 844.467 135.019 841.571 Q138.234 838.675 138.234 833.709 Q138.234 828.744 135.019 825.848 Q131.805 822.951 126.298 822.951 Q123.72 822.951 121.142 823.524 Q118.596 824.097 115.922 825.307 L115.922 801.435 Z" fill="#000000" fill-rule="nonzero" fill-opacity="1"></path><path clip-path="url(#clip490)" d="M171.081 805.668 Q166.116 805.668 163.601 810.57 Q161.119 815.44 161.119 825.243 Q161.119 835.014 163.601 839.916 Q166.116 844.786 171.081 844.786 Q176.078 844.786 178.561 839.916 Q181.075 835.014 181.075 825.243 Q181.075 815.44 178.561 810.57 Q176.078 805.668 171.081 805.668 M171.081 800.576 Q179.07 800.576 183.272 806.91 Q187.505 813.212 187.505 825.243 Q187.505 837.242 183.272 843.576 Q179.07 849.878 171.081 849.878 Q163.092 849.878 158.859 843.576 Q154.658 837.242 154.658 825.243 Q154.658 813.212 158.859 806.91 Q163.092 800.576 171.081 800.576 Z" fill="#000000" fill-rule="nonzero" fill-opacity="1"></path><path clip-path="url(#clip490)" d="M68.7843 481.522 Q63.819 481.522 61.3046 486.424 Q58.8219 491.293 58.8219 501.097 Q58.8219 510.868 61.3046 515.77 Q63.819 520.639 68.7843 520.639 Q73.7814 520.639 76.264 515.77 Q78.7784 510.868 78.7784 501.097 Q78.7784 491.293 76.264 486.424 Q73.7814 481.522 68.7843 481.522 M68.7843 476.43 Q76.7732 476.43 80.9746 482.763 Q85.2078 489.065 85.2078 501.097 Q85.2078 513.096 80.9746 519.43 Q76.7732 525.732 68.7843 525.732 Q60.7953 525.732 56.5621 519.43 Q52.3608 513.096 52.3608 501.097 Q52.3608 489.065 56.5621 482.763 Q60.7953 476.43 68.7843 476.43 Z" fill="#000000" fill-rule="nonzero" fill-opacity="1"></path><path clip-path="url(#clip490)" d="M96.5069 516.724 L103.223 516.724 L103.223 524.809 L96.5069 524.809 L96.5069 516.724 Z" fill="#000000" fill-rule="nonzero" fill-opacity="1"></path><path clip-path="url(#clip490)" d="M115.604 477.289 L146.159 477.289 L146.159 480.026 L128.908 524.809 L122.193 524.809 L138.425 482.7 L115.604 482.7 L115.604 477.289 Z" fill="#000000" fill-rule="nonzero" fill-opacity="1"></path><path clip-path="url(#clip490)" d="M158.764 477.289 L184.004 477.289 L184.004 482.7 L164.652 482.7 L164.652 494.349 Q166.052 493.872 167.453 493.649 Q168.853 493.394 170.254 493.394 Q178.211 493.394 182.858 497.755 Q187.505 502.115 187.505 509.563 Q187.505 517.234 182.73 521.499 Q177.956 525.732 169.267 525.732 Q166.275 525.732 163.156 525.223 Q160.069 524.713 156.758 523.695 L156.758 517.234 Q159.623 518.793 162.678 519.557 Q165.734 520.321 169.14 520.321 Q174.646 520.321 177.861 517.425 Q181.075 514.528 181.075 509.563 Q181.075 504.598 177.861 501.701 Q174.646 498.805 169.14 498.805 Q166.562 498.805 163.983 499.378 Q161.437 499.951 158.764 501.16 L158.764 477.289 Z" fill="#000000" fill-rule="nonzero" fill-opacity="1"></path><path clip-path="url(#clip490)" d="M54.7797 195.252 L65.2831 195.252 L65.2831 158.999 L53.8567 161.291 L53.8567 155.434 L65.2195 153.143 L71.6488 153.143 L71.6488 195.252 L82.1523 195.252 L82.1523 200.663 L54.7797 200.663 L54.7797 195.252 Z" fill="#000000" fill-rule="nonzero" fill-opacity="1"></path><path clip-path="url(#clip490)" d="M95.1383 192.578 L101.854 192.578 L101.854 200.663 L95.1383 200.663 L95.1383 192.578 Z" fill="#000000" fill-rule="nonzero" fill-opacity="1"></path><path clip-path="url(#clip490)" d="M129.609 157.376 Q124.643 157.376 122.129 162.277 Q119.646 167.147 119.646 176.95 Q119.646 186.722 122.129 191.623 Q124.643 196.493 129.609 196.493 Q134.606 196.493 137.088 191.623 Q139.603 186.722 139.603 176.95 Q139.603 167.147 137.088 162.277 Q134.606 157.376 129.609 157.376 M129.609 152.283 Q137.598 152.283 141.799 158.617 Q146.032 164.919 146.032 176.95 Q146.032 188.95 141.799 195.284 Q137.598 201.586 129.609 201.586 Q121.62 201.586 117.386 195.284 Q113.185 188.95 113.185 176.95 Q113.185 164.919 117.386 158.617 Q121.62 152.283 129.609 152.283 Z" fill="#000000" fill-rule="nonzero" fill-opacity="1"></path><path clip-path="url(#clip490)" d="M171.081 157.376 Q166.116 157.376 163.601 162.277 Q161.119 167.147 161.119 176.95 Q161.119 186.722 163.601 191.623 Q166.116 196.493 171.081 196.493 Q176.078 196.493 178.561 191.623 Q181.075 186.722 181.075 176.95 Q181.075 167.147 178.561 162.277 Q176.078 157.376 171.081 157.376 M171.081 152.283 Q179.07 152.283 183.272 158.617 Q187.505 164.919 187.505 176.95 Q187.505 188.95 183.272 195.284 Q179.07 201.586 171.081 201.586 Q163.092 201.586 158.859 195.284 Q154.658 188.95 154.658 176.95 Q154.658 164.919 158.859 158.617 Q163.092 152.283 171.081 152.283 Z" fill="#000000" fill-rule="nonzero" fill-opacity="1"></path><polyline clip-path="url(#clip492)" style="stroke:#009af9; stroke-linecap:round; stroke-linejoin:round; stroke-width:4; stroke-opacity:1; fill:none" points="223.505,1473.49 245.486,1473.49 374.232,1473.49 434.124,1473.49 514.402,1473.49 580.736,1473.49 642.421,1473.49 681.138,1473.49 719.856,1473.49 728.538,1473.49 737.221,1473.49 741.562,1473.49 745.903,1473.49 748.074,1473.49 750.244,1473.49 751.329,1473.49 752.415,1473.49 753.5,1473.49 754.585,1473.49 755.128,1473.49 755.671,1473.49 756.213,825.195 756.756,825.195 757.299,825.195 757.841,825.195 758.384,825.195 758.927,825.195 761.097,825.195 763.268,825.195 767.609,825.195 771.95,825.195 780.633,825.195 789.315,825.195 809.192,825.195 829.068,825.195 848.945,825.195 868.821,825.195 898.537,825.195 928.252,825.195 1004.26,825.195 1073.64,825.195 1152.6,825.195 1215.2,825.195 1292.96,825.195 1352.51,825.195 1436.48,825.195 1499.22,825.195 1570.58,825.195 1641.24,825.195 1680.12,825.195 1718.99,825.195 1748.68,825.195 1778.37,825.195 1787.74,825.195 1797.11,825.195 1801.79,825.195 1806.47,825.195 1808.82,825.195 1811.16,825.195 1813.5,825.195 1815.84,825.195 1817.01,825.195 1818.18,825.195 1818.77,825.195 1819.35,825.195 1819.94,825.195 1820.53,1473.49 1821.11,1473.49 1821.7,1473.49 1822.28,1473.49 1822.87,1473.49 1824.04,1473.49 1825.21,1473.49 1829.89,1473.49 1834.58,1473.49 1843.94,1473.49 1853.31,1473.49 1870.64,1473.49 1887.96,1473.49 1905.29,1473.49 1922.62,1473.49 1994.1,1473.49 2066.55,1473.49 2142.21,1473.49 2201.81,1473.49 2337.53,1473.49 2352.76,1473.49 "></polyline>
<path clip-path="url(#clip490)" d="M1967.83 237.346 L2281.78 237.346 L2281.78 94.7856 L1967.83 94.7856  Z" fill="#ffffff" fill-rule="evenodd" fill-opacity="1"></path>
<polyline clip-path="url(#clip490)" style="stroke:#000000; stroke-linecap:round; stroke-linejoin:round; stroke-width:4; stroke-opacity:1; fill:none" points="1967.83,237.346 2281.78,237.346 2281.78,94.7856 1967.83,94.7856 1967.83,237.346 "></polyline>
<polyline clip-path="url(#clip490)" style="stroke:#009af9; stroke-linecap:round; stroke-linejoin:round; stroke-width:5.5; stroke-opacity:1; fill:none" points="1991.49,166.066 2133.44,166.066 "></polyline>
<path clip-path="url(#clip490)" d="M2162.99 184.478 L2162.99 203.385 L2157.1 203.385 L2157.1 154.178 L2162.99 154.178 L2162.99 159.588 Q2164.83 156.406 2167.63 154.878 Q2170.47 153.318 2174.38 153.318 Q2180.87 153.318 2184.92 158.474 Q2188.99 163.631 2188.99 172.033 Q2188.99 180.436 2184.92 185.592 Q2180.87 190.749 2174.38 190.749 Q2170.47 190.749 2167.63 189.221 Q2164.83 187.661 2162.99 184.478 M2182.91 172.033 Q2182.91 165.572 2180.24 161.912 Q2177.6 158.22 2172.95 158.22 Q2168.3 158.22 2165.63 161.912 Q2162.99 165.572 2162.99 172.033 Q2162.99 178.495 2165.63 182.187 Q2168.3 185.847 2172.95 185.847 Q2177.6 185.847 2180.24 182.187 Q2182.91 178.495 2182.91 172.033 Z" fill="#000000" fill-rule="nonzero" fill-opacity="1"></path><path clip-path="url(#clip490)" d="M2222.16 159.588 L2222.16 140.3 L2228.01 140.3 L2228.01 189.826 L2222.16 189.826 L2222.16 184.478 Q2220.31 187.661 2217.48 189.221 Q2214.68 190.749 2210.73 190.749 Q2204.27 190.749 2200.19 185.592 Q2196.15 180.436 2196.15 172.033 Q2196.15 163.631 2200.19 158.474 Q2204.27 153.318 2210.73 153.318 Q2214.68 153.318 2217.48 154.878 Q2220.31 156.406 2222.16 159.588 M2202.2 172.033 Q2202.2 178.495 2204.84 182.187 Q2207.52 185.847 2212.16 185.847 Q2216.81 185.847 2219.48 182.187 Q2222.16 178.495 2222.16 172.033 Q2222.16 165.572 2219.48 161.912 Q2216.81 158.22 2212.16 158.22 Q2207.52 158.22 2204.84 161.912 Q2202.2 165.572 2202.2 172.033 Z" fill="#000000" fill-rule="nonzero" fill-opacity="1"></path><path clip-path="url(#clip490)" d="M2258.12 140.3 L2258.12 145.17 L2252.52 145.17 Q2249.37 145.17 2248.13 146.443 Q2246.92 147.716 2246.92 151.027 L2246.92 154.178 L2256.56 154.178 L2256.56 158.729 L2246.92 158.729 L2246.92 189.826 L2241.03 189.826 L2241.03 158.729 L2235.43 158.729 L2235.43 154.178 L2241.03 154.178 L2241.03 151.695 Q2241.03 145.743 2243.8 143.038 Q2246.57 140.3 2252.58 140.3 L2258.12 140.3 Z" fill="#000000" fill-rule="nonzero" fill-opacity="1"></path></svg>