<svg xmlns="http://www.w3.org/2000/svg" xmlns:xlink="http://www.w3.org/1999/xlink" width="600" height="400" viewBox="0 0 2400 1600">
<defs>
  <clipPath id="clip850">
    <rect x="0" y="0" width="2400" height="1600"></rect>
  </clipPath>
</defs>
<path clip-path="url(#clip850)" d="M0 1600 L2400 1600 L2400 0 L0 0  Z" fill="#ffffff" fill-rule="evenodd" fill-opacity="1"></path>
<defs>
  <clipPath id="clip851">
    <rect x="480" y="0" width="1681" height="1600"></rect>
  </clipPath>
</defs>
<path clip-path="url(#clip850)" d="M223.505 1473.49 L2352.76 1473.49 L2352.76 47.2441 L223.505 47.2441  Z" fill="#ffffff" fill-rule="evenodd" fill-opacity="1"></path>
<defs>
  <clipPath id="clip852">
    <rect x="223" y="47" width="2130" height="1427"></rect>
  </clipPath>
</defs>
<polyline clip-path="url(#clip852)" style="stroke:#000000; stroke-linecap:round; stroke-linejoin:round; stroke-width:2; stroke-opacity:0.1; fill:none" points="223.505,1473.49 223.505,47.2441 "></polyline>
<polyline clip-path="url(#clip852)" style="stroke:#000000; stroke-linecap:round; stroke-linejoin:round; stroke-width:2; stroke-opacity:0.1; fill:none" points="755.818,1473.49 755.818,47.2441 "></polyline>
<polyline clip-path="url(#clip852)" style="stroke:#000000; stroke-linecap:round; stroke-linejoin:round; stroke-width:2; stroke-opacity:0.1; fill:none" points="1288.13,1473.49 1288.13,47.2441 "></polyline>
<polyline clip-path="url(#clip852)" style="stroke:#000000; stroke-linecap:round; stroke-linejoin:round; stroke-width:2; stroke-opacity:0.1; fill:none" points="1820.44,1473.49 1820.44,47.2441 "></polyline>
<polyline clip-path="url(#clip852)" style="stroke:#000000; stroke-linecap:round; stroke-linejoin:round; stroke-width:2; stroke-opacity:0.1; fill:none" points="2352.76,1473.49 2352.76,47.2441 "></polyline>
<polyline clip-path="url(#clip852)" style="stroke:#000000; stroke-linecap:round; stroke-linejoin:round; stroke-width:2; stroke-opacity:0.1; fill:none" points="223.505,1473.49 2352.76,1473.49 "></polyline>
<polyline clip-path="url(#clip852)" style="stroke:#000000; stroke-linecap:round; stroke-linejoin:round; stroke-width:2; stroke-opacity:0.1; fill:none" points="223.505,1149.34 2352.76,1149.34 "></polyline>
<polyline clip-path="url(#clip852)" style="stroke:#000000; stroke-linecap:round; stroke-linejoin:round; stroke-width:2; stroke-opacity:0.1; fill:none" points="223.505,825.195 2352.76,825.195 "></polyline>
<polyline clip-path="url(#clip852)" style="stroke:#000000; stroke-linecap:round; stroke-linejoin:round; stroke-width:2; stroke-opacity:0.1; fill:none" points="223.505,501.049 2352.76,501.049 "></polyline>
<polyline clip-path="url(#clip852)" style="stroke:#000000; stroke-linecap:round; stroke-linejoin:round; stroke-width:2; stroke-opacity:0.1; fill:none" points="223.505,176.903 2352.76,176.903 "></polyline>
<polyline clip-path="url(#clip850)" style="stroke:#000000; stroke-linecap:round; stroke-linejoin:round; stroke-width:4; stroke-opacity:1; fill:none" points="223.505,1473.49 2352.76,1473.49 "></polyline>
<polyline clip-path="url(#clip850)" style="stroke:#000000; stroke-linecap:round; stroke-linejoin:round; stroke-width:4; stroke-opacity:1; fill:none" points="223.505,1473.49 223.505,1454.59 "></polyline>
<polyline clip-path="url(#clip850)" style="stroke:#000000; stroke-linecap:round; stroke-linejoin:round; stroke-width:4; stroke-opacity:1; fill:none" points="755.818,1473.49 755.818,1454.59 "></polyline>
<polyline clip-path="url(#clip850)" style="stroke:#000000; stroke-linecap:round; stroke-linejoin:round; stroke-width:4; stroke-opacity:1; fill:none" points="1288.13,1473.49 1288.13,1454.59 "></polyline>
<polyline clip-path="url(#clip850)" style="stroke:#000000; stroke-linecap:round; stroke-linejoin:round; stroke-width:4; stroke-opacity:1; fill:none" points="1820.44,1473.49 1820.44,1454.59 "></polyline>
<polyline clip-path="url(#clip850)" style="stroke:#000000; stroke-linecap:round; stroke-linejoin:round; stroke-width:4; stroke-opacity:1; fill:none" points="2352.76,1473.49 2352.76,1454.59 "></polyline>
<path clip-path="url(#clip850)" d="M181.921 1528.95 L222.725 1528.95 L222.725 1534.36 L181.921 1534.36 L181.921 1528.95 Z" fill="#000000" fill-rule="nonzero" fill-opacity="1"></path><path clip-path="url(#clip850)" d="M237.716 1546.68 L248.22 1546.68 L248.22 1510.42 L236.793 1512.72 L236.793 1506.86 L248.156 1504.57 L254.585 1504.57 L254.585 1546.68 L265.089 1546.68 L265.089 1552.09 L237.716 1552.09 L237.716 1546.68 Z" fill="#000000" fill-rule="nonzero" fill-opacity="1"></path><path clip-path="url(#clip850)" d="M755.818 1508.8 Q750.852 1508.8 748.338 1513.7 Q745.855 1518.57 745.855 1528.38 Q745.855 1538.15 748.338 1543.05 Q750.852 1547.92 755.818 1547.92 Q760.815 1547.92 763.297 1543.05 Q765.812 1538.15 765.812 1528.38 Q765.812 1518.57 763.297 1513.7 Q760.815 1508.8 755.818 1508.8 M755.818 1503.71 Q763.806 1503.71 768.008 1510.04 Q772.241 1516.34 772.241 1528.38 Q772.241 1540.37 768.008 1546.71 Q763.806 1553.01 755.818 1553.01 Q747.829 1553.01 743.595 1546.71 Q739.394 1540.37 739.394 1528.38 Q739.394 1516.34 743.595 1510.04 Q747.829 1503.71 755.818 1503.71 Z" fill="#000000" fill-rule="nonzero" fill-opacity="1"></path><path clip-path="url(#clip850)" d="M1274.91 1546.68 L1285.41 1546.68 L1285.41 1510.42 L1273.98 1512.72 L1273.98 1506.86 L1285.35 1504.57 L1291.77 1504.57 L1291.77 1546.68 L1302.28 1546.68 L1302.28 1552.09 L1274.91 1552.09 L1274.91 1546.68 Z" fill="#000000" fill-rule="nonzero" fill-opacity="1"></path><path clip-path="url(#clip850)" d="M1813.09 1546.68 L1835.53 1546.68 L1835.53 1552.09 L1805.36 1552.09 L1805.36 1546.68 Q1809.02 1542.89 1815.32 1536.52 Q1821.65 1530.13 1823.28 1528.28 Q1826.36 1524.81 1827.57 1522.42 Q1828.81 1520 1828.81 1517.68 Q1828.81 1513.89 1826.14 1511.51 Q1823.5 1509.12 1819.23 1509.12 Q1816.21 1509.12 1812.84 1510.17 Q1809.49 1511.22 1805.67 1513.35 L1805.67 1506.86 Q1809.56 1505.3 1812.93 1504.5 Q1816.31 1503.71 1819.11 1503.71 Q1826.49 1503.71 1830.88 1507.4 Q1835.28 1511.09 1835.28 1517.27 Q1835.28 1520.2 1834.16 1522.84 Q1833.08 1525.45 1830.18 1529.01 Q1829.39 1529.94 1825.12 1534.36 Q1820.86 1538.75 1813.09 1546.68 Z" fill="#000000" fill-rule="nonzero" fill-opacity="1"></path><path clip-path="url(#clip850)" d="M2358.6 1526.47 Q2363.21 1527.45 2365.79 1530.57 Q2368.4 1533.69 2368.4 1538.27 Q2368.4 1545.31 2363.56 1549.16 Q2358.72 1553.01 2349.81 1553.01 Q2346.82 1553.01 2343.64 1552.41 Q2340.49 1551.83 2337.11 1550.66 L2337.11 1544.45 Q2339.79 1546.01 2342.97 1546.8 Q2346.15 1547.6 2349.62 1547.6 Q2355.67 1547.6 2358.82 1545.21 Q2362 1542.83 2362 1538.27 Q2362 1534.07 2359.04 1531.72 Q2356.11 1529.33 2350.86 1529.33 L2345.32 1529.33 L2345.32 1524.05 L2351.12 1524.05 Q2355.86 1524.05 2358.37 1522.17 Q2360.89 1520.26 2360.89 1516.69 Q2360.89 1513.03 2358.28 1511.09 Q2355.7 1509.12 2350.86 1509.12 Q2348.22 1509.12 2345.2 1509.69 Q2342.17 1510.27 2338.54 1511.47 L2338.54 1505.75 Q2342.2 1504.73 2345.39 1504.22 Q2348.6 1503.71 2351.44 1503.71 Q2358.76 1503.71 2363.02 1507.05 Q2367.29 1510.36 2367.29 1516.03 Q2367.29 1519.97 2365.03 1522.71 Q2362.77 1525.42 2358.6 1526.47 Z" fill="#000000" fill-rule="nonzero" fill-opacity="1"></path><polyline clip-path="url(#clip850)" style="stroke:#000000; stroke-linecap:round; stroke-linejoin:round; stroke-width:4; stroke-opacity:1; fill:none" points="223.505,1473.49 223.505,47.2441 "></polyline>
<polyline clip-path="url(#clip850)" style="stroke:#000000; stroke-linecap:round; stroke-linejoin:round; stroke-width:4; stroke-opacity:1; fill:none" points="223.505,1473.49 242.402,1473.49 "></polyline>
<polyline clip-path="url(#clip850)" style="stroke:#000000; stroke-linecap:round; stroke-linejoin:round; stroke-width:4; stroke-opacity:1; fill:none" points="223.505,1149.34 242.402,1149.34 "></polyline>
<polyline clip-path="url(#clip850)" style="stroke:#000000; stroke-linecap:round; stroke-linejoin:round; stroke-width:4; stroke-opacity:1; fill:none" points="223.505,825.195 242.402,825.195 "></polyline>
<polyline clip-path="url(#clip850)" style="stroke:#000000; stroke-linecap:round; stroke-linejoin:round; stroke-width:4; stroke-opacity:1; fill:none" points="223.505,501.049 242.402,501.049 "></polyline>
<polyline clip-path="url(#clip850)" style="stroke:#000000; stroke-linecap:round; stroke-linejoin:round; stroke-width:4; stroke-opacity:1; fill:none" points="223.505,176.903 242.402,176.903 "></polyline>
<path clip-path="url(#clip850)" d="M67.4156 1453.96 Q62.4504 1453.96 59.9359 1458.86 Q57.4533 1463.73 57.4533 1473.54 Q57.4533 1483.31 59.9359 1488.21 Q62.4504 1493.08 67.4156 1493.08 Q72.4127 1493.08 74.8954 1488.21 Q77.4098 1483.31 77.4098 1473.54 Q77.4098 1463.73 74.8954 1458.86 Q72.4127 1453.96 67.4156 1453.96 M67.4156 1448.87 Q75.4046 1448.87 79.606 1455.2 Q83.8392 1461.5 83.8392 1473.54 Q83.8392 1485.53 79.606 1491.87 Q75.4046 1498.17 67.4156 1498.17 Q59.4267 1498.17 55.1935 1491.87 Q50.9921 1485.53 50.9921 1473.54 Q50.9921 1461.5 55.1935 1455.2 Q59.4267 1448.87 67.4156 1448.87 Z" fill="#000000" fill-rule="nonzero" fill-opacity="1"></path><path clip-path="url(#clip850)" d="M95.1383 1489.16 L101.854 1489.16 L101.854 1497.25 L95.1383 1497.25 L95.1383 1489.16 Z" fill="#000000" fill-rule="nonzero" fill-opacity="1"></path><path clip-path="url(#clip850)" d="M129.609 1453.96 Q124.643 1453.96 122.129 1458.86 Q119.646 1463.73 119.646 1473.54 Q119.646 1483.31 122.129 1488.21 Q124.643 1493.08 129.609 1493.08 Q134.606 1493.08 137.088 1488.21 Q139.603 1483.31 139.603 1473.54 Q139.603 1463.73 137.088 1458.86 Q134.606 1453.96 129.609 1453.96 M129.609 1448.87 Q137.598 1448.87 141.799 1455.2 Q146.032 1461.5 146.032 1473.54 Q146.032 1485.53 141.799 1491.87 Q137.598 1498.17 129.609 1498.17 Q121.62 1498.17 117.386 1491.87 Q113.185 1485.53 113.185 1473.54 Q113.185 1461.5 117.386 1455.2 Q121.62 1448.87 129.609 1448.87 Z" fill="#000000" fill-rule="nonzero" fill-opacity="1"></path><path clip-path="url(#clip850)" d="M171.081 1453.96 Q166.116 1453.96 163.601 1458.86 Q161.119 1463.73 161.119 1473.54 Q161.119 1483.31 163.601 1488.21 Q166.116 1493.08 171.081 1493.08 Q176.078 1493.08 178.561 1488.21 Q181.075 1483.31 181.075 1473.54 Q181.075 1463.73 178.561 1458.86 Q176.078 1453.96 171.081 1453.96 M171.081 1448.87 Q179.07 1448.87 183.272 1455.2 Q187.505 1461.5 187.505 1473.54 Q187.505 1485.53 183.272 1491.87 Q179.07 1498.17 171.081 1498.17 Q163.092 1498.17 158.859 1491.87 Q154.658 1485.53 154.658 1473.54 Q154.658 1461.5 158.859 1455.2 Q163.092 1448.87 171.081 1448.87 Z" fill="#000000" fill-rule="nonzero" fill-opacity="1"></path><path clip-path="url(#clip850)" d="M68.7843 1129.81 Q63.819 1129.81 61.3046 1134.72 Q58.8219 1139.59 58.8219 1149.39 Q58.8219 1159.16 61.3046 1164.06 Q63.819 1168.93 68.7843 1168.93 Q73.7814 1168.93 76.264 1164.06 Q78.7784 1159.16 78.7784 1149.39 Q78.7784 1139.59 76.264 1134.72 Q73.7814 1129.81 68.7843 1129.81 M68.7843 1124.72 Q76.7732 1124.72 80.9746 1131.06 Q85.2078 1137.36 85.2078 1149.39 Q85.2078 1161.39 80.9746 1167.72 Q76.7732 1174.02 68.7843 1174.02 Q60.7953 1174.02 56.5621 1167.72 Q52.3608 1161.39 52.3608 1149.39 Q52.3608 1137.36 56.5621 1131.06 Q60.7953 1124.72 68.7843 1124.72 Z" fill="#000000" fill-rule="nonzero" fill-opacity="1"></path><path clip-path="url(#clip850)" d="M96.5069 1165.02 L103.223 1165.02 L103.223 1173.1 L96.5069 1173.1 L96.5069 1165.02 Z" fill="#000000" fill-rule="nonzero" fill-opacity="1"></path><path clip-path="url(#clip850)" d="M122.765 1167.69 L145.205 1167.69 L145.205 1173.1 L115.031 1173.1 L115.031 1167.69 Q118.691 1163.9 124.993 1157.54 Q131.327 1151.14 132.951 1149.29 Q136.038 1145.82 137.247 1143.44 Q138.489 1141.02 138.489 1138.69 Q138.489 1134.91 135.815 1132.52 Q133.173 1130.13 128.908 1130.13 Q125.885 1130.13 122.511 1131.18 Q119.169 1132.23 115.349 1134.37 L115.349 1127.87 Q119.233 1126.31 122.606 1125.52 Q125.98 1124.72 128.781 1124.72 Q136.165 1124.72 140.558 1128.41 Q144.95 1132.11 144.95 1138.28 Q144.95 1141.21 143.836 1143.85 Q142.754 1146.46 139.857 1150.03 Q139.062 1150.95 134.797 1155.37 Q130.532 1159.77 122.765 1167.69 Z" fill="#000000" fill-rule="nonzero" fill-opacity="1"></path><path clip-path="url(#clip850)" d="M158.764 1125.58 L184.004 1125.58 L184.004 1130.99 L164.652 1130.99 L164.652 1142.64 Q166.052 1142.16 167.453 1141.94 Q168.853 1141.69 170.254 1141.69 Q178.211 1141.69 182.858 1146.05 Q187.505 1150.41 187.505 1157.86 Q187.505 1165.53 182.73 1169.79 Q177.956 1174.02 169.267 1174.02 Q166.275 1174.02 163.156 1173.52 Q160.069 1173.01 156.758 1171.99 L156.758 1165.53 Q159.623 1167.09 162.678 1167.85 Q165.734 1168.61 169.14 1168.61 Q174.646 1168.61 177.861 1165.72 Q181.075 1162.82 181.075 1157.86 Q181.075 1152.89 177.861 1149.99 Q174.646 1147.1 169.14 1147.1 Q166.562 1147.1 163.983 1147.67 Q161.437 1148.24 158.764 1149.45 L158.764 1125.58 Z" fill="#000000" fill-rule="nonzero" fill-opacity="1"></path><path clip-path="url(#clip850)" d="M67.4156 805.668 Q62.4504 805.668 59.9359 810.57 Q57.4533 815.44 57.4533 825.243 Q57.4533 835.014 59.9359 839.916 Q62.4504 844.786 67.4156 844.786 Q72.4127 844.786 74.8954 839.916 Q77.4098 835.014 77.4098 825.243 Q77.4098 815.44 74.8954 810.57 Q72.4127 805.668 67.4156 805.668 M67.4156 800.576 Q75.4046 800.576 79.606 806.91 Q83.8392 813.212 83.8392 825.243 Q83.8392 837.242 79.606 843.576 Q75.4046 849.878 67.4156 849.878 Q59.4267 849.878 55.1935 843.576 Q50.9921 837.242 50.9921 825.243 Q50.9921 813.212 55.1935 806.91 Q59.4267 800.576 67.4156 800.576 Z" fill="#000000" fill-rule="nonzero" fill-opacity="1"></path><path clip-path="url(#clip850)" d="M95.1383 840.871 L101.854 840.871 L101.854 848.955 L95.1383 848.955 L95.1383 840.871 Z" fill="#000000" fill-rule="nonzero" fill-opacity="1"></path><path clip-path="url(#clip850)" d="M115.922 801.435 L141.162 801.435 L141.162 806.846 L121.811 806.846 L121.811 818.495 Q123.211 818.018 124.612 817.795 Q126.012 817.54 127.412 817.54 Q135.37 817.54 140.017 821.901 Q144.663 826.262 144.663 833.709 Q144.663 841.38 139.889 845.645 Q135.115 849.878 126.426 849.878 Q123.434 849.878 120.315 849.369 Q117.227 848.86 113.917 847.841 L113.917 841.38 Q116.782 842.94 119.837 843.704 Q122.893 844.467 126.298 844.467 Q131.805 844.467 135.019 841.571 Q138.234 838.675 138.234 833.709 Q138.234 828.744 135.019 825.848 Q131.805 822.951 126.298 822.951 Q123.72 822.951 121.142 823.524 Q118.596 824.097 115.922 825.307 L115.922 801.435 Z" fill="#000000" fill-rule="nonzero" fill-opacity="1"></path><path clip-path="url(#clip850)" d="M171.081 805.668 Q166.116 805.668 163.601 810.57 Q161.119 815.44 161.119 825.243 Q161.119 835.014 163.601 839.916 Q166.116 844.786 171.081 844.786 Q176.078 844.786 178.561 839.916 Q181.075 835.014 181.075 825.243 Q181.075 815.44 178.561 810.57 Q176.078 805.668 171.081 805.668 M171.081 800.576 Q179.07 800.576 183.272 806.91 Q187.505 813.212 187.505 825.243 Q187.505 837.242 183.272 843.576 Q179.07 849.878 171.081 849.878 Q163.092 849.878 158.859 843.576 Q154.658 837.242 154.658 825.243 Q154.658 813.212 158.859 806.91 Q163.092 800.576 171.081 800.576 Z" fill="#000000" fill-rule="nonzero" fill-opacity="1"></path><path clip-path="url(#clip850)" d="M68.7843 481.522 Q63.819 481.522 61.3046 486.424 Q58.8219 491.293 58.8219 501.097 Q58.8219 510.868 61.3046 515.77 Q63.819 520.639 68.7843 520.639 Q73.7814 520.639 76.264 515.77 Q78.7784 510.868 78.7784 501.097 Q78.7784 491.293 76.264 486.424 Q73.7814 481.522 68.7843 481.522 M68.7843 476.43 Q76.7732 476.43 80.9746 482.763 Q85.2078 489.065 85.2078 501.097 Q85.2078 513.096 80.9746 519.43 Q76.7732 525.732 68.7843 525.732 Q60.7953 525.732 56.5621 519.43 Q52.3608 513.096 52.3608 501.097 Q52.3608 489.065 56.5621 482.763 Q60.7953 476.43 68.7843 476.43 Z" fill="#000000" fill-rule="nonzero" fill-opacity="1"></path><path clip-path="url(#clip850)" d="M96.5069 516.724 L103.223 516.724 L103.223 524.809 L96.5069 524.809 L96.5069 516.724 Z" fill="#000000" fill-rule="nonzero" fill-opacity="1"></path><path clip-path="url(#clip850)" d="M115.604 477.289 L146.159 477.289 L146.159 480.026 L128.908 524.809 L122.193 524.809 L138.425 482.7 L115.604 482.7 L115.604 477.289 Z" fill="#000000" fill-rule="nonzero" fill-opacity="1"></path><path clip-path="url(#clip850)" d="M158.764 477.289 L184.004 477.289 L184.004 482.7 L164.652 482.7 L164.652 494.349 Q166.052 493.872 167.453 493.649 Q168.853 493.394 170.254 493.394 Q178.211 493.394 182.858 497.755 Q187.505 502.115 187.505 509.563 Q187.505 517.234 182.73 521.499 Q177.956 525.732 169.267 525.732 Q166.275 525.732 163.156 525.223 Q160.069 524.713 156.758 523.695 L156.758 517.234 Q159.623 518.793 162.678 519.557 Q165.734 520.321 169.14 520.321 Q174.646 520.321 177.861 517.425 Q181.075 514.528 181.075 509.563 Q181.075 504.598 177.861 501.701 Q174.646 498.805 169.14 498.805 Q166.562 498.805 163.983 499.378 Q161.437 499.951 158.764 501.16 L158.764 477.289 Z" fill="#000000" fill-rule="nonzero" fill-opacity="1"></path><path clip-path="url(#clip850)" d="M54.7797 195.252 L65.2831 195.252 L65.2831 158.999 L53.8567 161.291 L53.8567 155.434 L65.2195 153.143 L71.6488 153.143 L71.6488 195.252 L82.1523 195.252 L82.1523 200.663 L54.7797 200.663 L54.7797 195.252 Z" fill="#000000" fill-rule="nonzero" fill-opacity="1"></path><path clip-path="url(#clip850)" d="M95.1383 192.578 L101.854 192.578 L101.854 200.663 L95.1383 200.663 L95.1383 192.578 Z" fill="#000000" fill-rule="nonzero" fill-opacity="1"></path><path clip-path="url(#clip850)" d="M129.609 157.376 Q124.643 157.376 122.129 162.277 Q119.646 167.147 119.646 176.95 Q119.646 186.722 122.129 191.623 Q124.643 196.493 129.609 196.493 Q134.606 196.493 137.088 191.623 Q139.603 186.722 139.603 176.95 Q139.603 167.147 137.088 162.277 Q134.606 157.376 129.609 157.376 M129.609 152.283 Q137.598 152.283 141.799 158.617 Q146.032 164.919 146.032 176.95 Q146.032 188.95 141.799 195.284 Q137.598 201.586 129.609 201.586 Q121.62 201.586 117.386 195.284 Q113.185 188.95 113.185 176.95 Q113.185 164.919 117.386 158.617 Q121.62 152.283 129.609 152.283 Z" fill="#000000" fill-rule="nonzero" fill-opacity="1"></path><path clip-path="url(#clip850)" d="M171.081 157.376 Q166.116 157.376 163.601 162.277 Q161.119 167.147 161.119 176.95 Q161.119 186.722 163.601 191.623 Q166.116 196.493 171.081 196.493 Q176.078 196.493 178.561 191.623 Q181.075 186.722 181.075 176.95 Q181.075 167.147 178.561 162.277 Q176.078 157.376 171.081 157.376 M171.081 152.283 Q179.07 152.283 183.272 158.617 Q187.505 164.919 187.505 176.95 Q187.505 188.95 183.272 195.284 Q179.07 201.586 171.081 201.586 Q163.092 201.586 158.859 195.284 Q154.658 188.95 154.658 176.95 Q154.658 164.919 158.859 158.617 Q163.092 152.283 171.081 152.283 Z" fill="#000000" fill-rule="nonzero" fill-opacity="1"></path><polyline clip-path="url(#clip852)" style="stroke:#009af9; stroke-linecap:round; stroke-linejoin:round; stroke-width:4; stroke-opacity:1; fill:none" points="223.505,1473.49 245.486,1473.49 374.232,1473.49 434.124,1473.49 514.402,1473.49 580.736,1473.49 642.421,1473.49 681.138,1473.49 719.856,1473.49 728.538,1473.49 737.221,1473.49 741.562,1473.49 745.903,1473.49 748.074,1473.49 750.244,1473.49 751.329,1473.49 752.415,1473.49 753.5,1473.49 754.585,1473.49 755.128,1473.49 755.671,1473.49 756.213,1326.37 756.756,1325.77 757.299,1325.17 757.841,1324.56 758.384,1323.96 758.927,1323.35 761.097,1320.9 763.268,1318.42 767.609,1313.37 771.95,1308.21 780.633,1297.5 789.315,1286.31 809.192,1258.79 829.068,1228.59 848.945,1195.7 868.821,1160.15 883.679,1131.88 898.537,1102.21 913.394,1071.23 928.252,1039.01 947.255,996.196 966.258,951.825 985.262,906.228 1004.26,859.782 1038.95,774.225 1073.64,690.16 1093.38,644.198 1113.12,600.355 1122.99,579.418 1132.86,559.237 1142.73,539.885 1152.6,521.434 1160.43,507.493 1168.25,494.195 1176.07,481.571 1183.9,469.652 1191.72,458.467 1199.55,448.045 1207.37,438.41 1215.2,429.587 1224.92,419.79 1234.64,411.319 1244.36,404.207 1254.08,398.482 1263.8,394.167 1273.52,391.279 1283.24,389.83 1292.96,389.826 1300.4,390.799 1307.85,392.618 1315.29,395.277 1322.74,398.771 1330.18,403.091 1337.63,408.228 1345.07,414.169 1352.51,420.9 1363.01,431.703 1373.51,443.998 1384,457.728 1394.5,472.833 1404.99,489.244 1415.49,506.89 1425.98,525.696 1436.48,545.579 1452.16,577.123 1467.85,610.597 1483.54,645.701 1499.22,682.131 1534.9,768.31 1570.58,856.294 1588.24,899.538 1605.91,942.099 1623.58,983.667 1641.24,1023.97 1650.96,1045.51 1660.68,1066.56 1670.4,1087.09 1680.12,1107.08 1699.55,1145.32 1718.99,1181.13 1733.83,1206.79 1748.68,1230.95 1763.53,1253.61 1778.37,1274.77 1787.74,1287.35 1797.11,1299.36 1801.79,1305.15 1806.47,1310.8 1808.82,1313.57 1811.16,1316.3 1813.5,1319 1815.84,1321.67 1817.01,1322.99 1818.18,1324.3 1818.77,1324.95 1819.35,1325.6 1819.94,1326.25 1820.53,1473.49 1821.11,1473.49 1821.7,1473.49 1822.28,1473.49 1822.87,1473.49 1824.04,1473.49 1825.21,1473.49 1829.89,1473.49 1834.58,1473.49 1843.94,1473.49 1853.31,1473.49 1870.64,1473.49 1887.96,1473.49 1905.29,1473.49 1922.62,1473.49 1994.1,1473.49 2066.55,1473.49 2142.21,1473.49 2201.81,1473.49 2337.53,1473.49 2352.76,1473.49 "></polyline>
<polyline clip-path="url(#clip852)" style="stroke:#e26f46; stroke-linecap:round; stroke-linejoin:round; stroke-width:4; stroke-opacity:1; fill:none" points="223.505,1473.49 245.486,1473.49 374.232,1473.49 434.124,1473.49 514.402,1473.49 580.736,1473.49 642.421,1473.49 681.138,1473.49 719.856,1473.49 728.538,1473.49 737.221,1473.49 741.562,1473.49 745.903,1473.49 748.074,1473.49 750.244,1473.49 751.329,1473.49 752.415,1473.49 753.5,1473.49 754.585,1473.49 755.128,1473.49 755.671,1473.49 756.213,164.07 756.756,164.072 757.299,164.077 757.841,164.084 758.384,164.093 758.927,164.104 761.097,164.17 763.268,164.269 767.609,164.571 771.95,165.008 780.633,166.29 789.315,168.114 809.192,174.314 829.068,183.298 848.945,195.008 868.821,209.369 883.679,221.781 898.537,235.578 913.394,250.713 928.252,267.132 947.255,289.913 966.258,314.574 985.262,340.979 1004.26,368.983 1021.61,395.813 1038.95,423.734 1056.3,452.626 1073.64,482.369 1113.12,552.593 1152.6,625.164 1183.9,683.446 1215.2,741.688 1254.08,813.088 1292.96,882.469 1322.74,933.685 1352.51,982.867 1373.51,1016.17 1394.5,1048.24 1415.49,1079.02 1436.48,1108.46 1467.85,1149.89 1499.22,1188.17 1517.06,1208.52 1534.9,1227.85 1552.74,1246.17 1570.58,1263.5 1588.24,1279.69 1605.91,1294.94 1623.58,1309.27 1641.24,1322.71 1660.68,1336.5 1680.12,1349.29 1699.55,1361.12 1718.99,1372.04 1748.68,1387.05 1778.37,1400.2 1787.74,1403.98 1797.11,1407.61 1801.79,1409.36 1806.47,1411.07 1808.82,1411.91 1811.16,1412.75 1813.5,1413.57 1815.84,1414.38 1817.01,1414.79 1818.18,1415.19 1818.77,1415.39 1819.35,1415.59 1819.94,1415.79 1820.53,1473.49 1821.11,1473.49 1821.7,1473.49 1822.28,1473.49 1822.87,1473.49 1824.04,1473.49 1825.21,1473.49 1829.89,1473.49 1834.58,1473.49 1843.94,1473.49 1853.31,1473.49 1870.64,1473.49 1887.96,1473.49 1905.29,1473.49 1922.62,1473.49 1994.1,1473.49 2066.55,1473.49 2142.21,1473.49 2201.81,1473.49 2337.53,1473.49 2352.76,1473.49 "></polyline>
<polyline clip-path="url(#clip852)" style="stroke:#3da44d; stroke-linecap:round; stroke-linejoin:round; stroke-width:4; stroke-opacity:1; fill:none" points="223.505,1473.49 245.486,1473.49 374.232,1473.49 434.124,1473.49 514.402,1473.49 580.736,1473.49 642.421,1473.49 681.138,1473.49 719.856,1473.49 728.538,1473.49 737.221,1473.49 741.562,1473.49 745.903,1473.49 748.074,1473.49 750.244,1473.49 751.329,1473.49 752.415,1473.49 753.5,1473.49 754.585,1473.49 755.128,1473.49 755.671,1473.49 756.213,1415.82 756.756,1415.64 757.299,1415.45 757.841,1415.27 758.384,1415.08 758.927,1414.9 761.097,1414.15 763.268,1413.39 767.609,1411.86 771.95,1410.29 780.633,1407.05 789.315,1403.67 809.192,1395.4 829.068,1386.34 848.945,1376.45 868.821,1365.66 898.537,1347.77 928.252,1327.63 947.255,1313.49 966.258,1298.34 985.262,1282.13 1004.26,1264.83 1021.61,1248.08 1038.95,1230.38 1056.3,1211.73 1073.64,1192.12 1093.38,1168.62 1113.12,1143.87 1132.86,1117.87 1152.6,1090.64 1168.25,1068.21 1183.9,1045.03 1199.55,1021.15 1215.2,996.574 1254.08,932.749 1292.96,865.472 1322.74,812.081 1352.51,757.511 1436.48,601.427 1499.22,488.28 1517.06,457.545 1534.9,427.687 1552.74,398.84 1570.58,371.133 1588.24,344.942 1605.91,320.117 1623.58,296.772 1641.24,275.018 1660.68,253.05 1680.12,233.265 1699.55,215.782 1718.99,200.707 1733.83,190.871 1748.68,182.53 1763.53,175.712 1778.37,170.443 1787.74,167.925 1797.11,166.034 1801.79,165.325 1806.47,164.773 1808.82,164.557 1811.16,164.38 1813.5,164.243 1815.84,164.146 1817.01,164.112 1818.18,164.088 1818.77,164.079 1819.35,164.073 1819.94,164.07 1820.53,1473.49 1821.11,1473.49 1821.7,1473.49 1822.28,1473.49 1822.87,1473.49 1824.04,1473.49 1825.21,1473.49 1829.89,1473.49 1834.58,1473.49 1843.94,1473.49 1853.31,1473.49 1870.64,1473.49 1887.96,1473.49 1905.29,1473.49 1922.62,1473.49 1994.1,1473.49 2066.55,1473.49 2142.21,1473.49 2201.81,1473.49 2337.53,1473.49 2352.76,1473.49 "></polyline>
<path clip-path="url(#clip850)" d="M1891.16 379.906 L2281.78 379.906 L2281.78 94.7856 L1891.16 94.7856  Z" fill="#ffffff" fill-rule="evenodd" fill-opacity="1"></path>
<polyline clip-path="url(#clip850)" style="stroke:#000000; stroke-linecap:round; stroke-linejoin:round; stroke-width:4; stroke-opacity:1; fill:none" points="1891.16,379.906 2281.78,379.906 2281.78,94.7856 1891.16,94.7856 1891.16,379.906 "></polyline>
<polyline clip-path="url(#clip850)" style="stroke:#009af9; stroke-linecap:round; stroke-linejoin:round; stroke-width:5.5; stroke-opacity:1; fill:none" points="1914.82,166.066 2056.77,166.066 "></polyline>
<path clip-path="url(#clip850)" d="M2086.31 184.478 L2086.31 203.385 L2080.42 203.385 L2080.42 154.178 L2086.31 154.178 L2086.31 159.588 Q2088.16 156.406 2090.96 154.878 Q2093.79 153.318 2097.71 153.318 Q2104.2 153.318 2108.24 158.474 Q2112.32 163.631 2112.32 172.033 Q2112.32 180.436 2108.24 185.592 Q2104.2 190.749 2097.71 190.749 Q2093.79 190.749 2090.96 189.221 Q2088.16 187.661 2086.31 184.478 M2106.24 172.033 Q2106.24 165.572 2103.56 161.912 Q2100.92 158.22 2096.27 158.22 Q2091.63 158.22 2088.95 161.912 Q2086.31 165.572 2086.31 172.033 Q2086.31 178.495 2088.95 182.187 Q2091.63 185.847 2096.27 185.847 Q2100.92 185.847 2103.56 182.187 Q2106.24 178.495 2106.24 172.033 Z" fill="#000000" fill-rule="nonzero" fill-opacity="1"></path><path clip-path="url(#clip850)" d="M2145.48 159.588 L2145.48 140.3 L2151.34 140.3 L2151.34 189.826 L2145.48 189.826 L2145.48 184.478 Q2143.64 187.661 2140.8 189.221 Q2138 190.749 2134.05 190.749 Q2127.59 190.749 2123.52 185.592 Q2119.48 180.436 2119.48 172.033 Q2119.48 163.631 2123.52 158.474 Q2127.59 153.318 2134.05 153.318 Q2138 153.318 2140.8 154.878 Q2143.64 156.406 2145.48 159.588 M2125.52 172.033 Q2125.52 178.495 2128.17 182.187 Q2130.84 185.847 2135.49 185.847 Q2140.13 185.847 2142.81 182.187 Q2145.48 178.495 2145.48 172.033 Q2145.48 165.572 2142.81 161.912 Q2140.13 158.22 2135.49 158.22 Q2130.84 158.22 2128.17 161.912 Q2125.52 165.572 2125.52 172.033 Z" fill="#000000" fill-rule="nonzero" fill-opacity="1"></path><path clip-path="url(#clip850)" d="M2181.45 140.3 L2181.45 145.17 L2175.85 145.17 Q2172.69 145.17 2171.45 146.443 Q2170.24 147.716 2170.24 151.027 L2170.24 154.178 L2179.89 154.178 L2179.89 158.729 L2170.24 158.729 L2170.24 189.826 L2164.36 189.826 L2164.36 158.729 L2158.75 158.729 L2158.75 154.178 L2164.36 154.178 L2164.36 151.695 Q2164.36 145.743 2167.12 143.038 Q2169.89 140.3 2175.91 140.3 L2181.45 140.3 Z" fill="#000000" fill-rule="nonzero" fill-opacity="1"></path><path clip-path="url(#clip850)" d="M2179.82 169.36 L2196.98 169.36 L2196.98 174.58 L2179.82 174.58 L2179.82 169.36 Z" fill="#000000" fill-rule="nonzero" fill-opacity="1"></path><path clip-path="url(#clip850)" d="M2234.06 161.021 Q2236.26 157.074 2239.31 155.196 Q2242.37 153.318 2246.51 153.318 Q2252.08 153.318 2255.1 157.233 Q2258.12 161.116 2258.12 168.309 L2258.12 189.826 L2252.23 189.826 L2252.23 168.5 Q2252.23 163.376 2250.42 160.893 Q2248.61 158.411 2244.88 158.411 Q2240.33 158.411 2237.69 161.435 Q2235.05 164.458 2235.05 169.678 L2235.05 189.826 L2229.16 189.826 L2229.16 168.5 Q2229.16 163.344 2227.34 160.893 Q2225.53 158.411 2221.74 158.411 Q2217.25 158.411 2214.61 161.466 Q2211.97 164.49 2211.97 169.678 L2211.97 189.826 L2206.08 189.826 L2206.08 154.178 L2211.97 154.178 L2211.97 159.716 Q2213.98 156.437 2216.78 154.878 Q2219.58 153.318 2223.43 153.318 Q2227.31 153.318 2230.02 155.292 Q2232.76 157.265 2234.06 161.021 Z" fill="#000000" fill-rule="nonzero" fill-opacity="1"></path><polyline clip-path="url(#clip850)" style="stroke:#e26f46; stroke-linecap:round; stroke-linejoin:round; stroke-width:5.5; stroke-opacity:1; fill:none" points="1914.82,237.346 2056.77,237.346 "></polyline>
<path clip-path="url(#clip850)" d="M2086.31 255.758 L2086.31 274.665 L2080.42 274.665 L2080.42 225.458 L2086.31 225.458 L2086.31 230.868 Q2088.16 227.686 2090.96 226.158 Q2093.79 224.598 2097.71 224.598 Q2104.2 224.598 2108.24 229.754 Q2112.32 234.911 2112.32 243.313 Q2112.32 251.716 2108.24 256.872 Q2104.2 262.029 2097.71 262.029 Q2093.79 262.029 2090.96 260.501 Q2088.16 258.941 2086.31 255.758 M2106.24 243.313 Q2106.24 236.852 2103.56 233.192 Q2100.92 229.5 2096.27 229.5 Q2091.63 229.5 2088.95 233.192 Q2086.31 236.852 2086.31 243.313 Q2086.31 249.775 2088.95 253.467 Q2091.63 257.127 2096.27 257.127 Q2100.92 257.127 2103.56 253.467 Q2106.24 249.775 2106.24 243.313 Z" fill="#000000" fill-rule="nonzero" fill-opacity="1"></path><path clip-path="url(#clip850)" d="M2145.48 230.868 L2145.48 211.58 L2151.34 211.58 L2151.34 261.106 L2145.48 261.106 L2145.48 255.758 Q2143.64 258.941 2140.8 260.501 Q2138 262.029 2134.05 262.029 Q2127.59 262.029 2123.52 256.872 Q2119.48 251.716 2119.48 243.313 Q2119.48 234.911 2123.52 229.754 Q2127.59 224.598 2134.05 224.598 Q2138 224.598 2140.8 226.158 Q2143.64 227.686 2145.48 230.868 M2125.52 243.313 Q2125.52 249.775 2128.17 253.467 Q2130.84 257.127 2135.49 257.127 Q2140.13 257.127 2142.81 253.467 Q2145.48 249.775 2145.48 243.313 Q2145.48 236.852 2142.81 233.192 Q2140.13 229.5 2135.49 229.5 Q2130.84 229.5 2128.17 233.192 Q2125.52 236.852 2125.52 243.313 Z" fill="#000000" fill-rule="nonzero" fill-opacity="1"></path><path clip-path="url(#clip850)" d="M2181.45 211.58 L2181.45 216.45 L2175.85 216.45 Q2172.69 216.45 2171.45 217.723 Q2170.24 218.996 2170.24 222.307 L2170.24 225.458 L2179.89 225.458 L2179.89 230.009 L2170.24 230.009 L2170.24 261.106 L2164.36 261.106 L2164.36 230.009 L2158.75 230.009 L2158.75 225.458 L2164.36 225.458 L2164.36 222.975 Q2164.36 217.023 2167.12 214.318 Q2169.89 211.58 2175.91 211.58 L2181.45 211.58 Z" fill="#000000" fill-rule="nonzero" fill-opacity="1"></path><path clip-path="url(#clip850)" d="M2179.82 240.64 L2196.98 240.64 L2196.98 245.86 L2179.82 245.86 L2179.82 240.64 Z" fill="#000000" fill-rule="nonzero" fill-opacity="1"></path><path clip-path="url(#clip850)" d="M2206.31 211.58 L2212.16 211.58 L2212.16 261.106 L2206.31 261.106 L2206.31 211.58 Z" fill="#000000" fill-rule="nonzero" fill-opacity="1"></path><polyline clip-path="url(#clip850)" style="stroke:#3da44d; stroke-linecap:round; stroke-linejoin:round; stroke-width:5.5; stroke-opacity:1; fill:none" points="1914.82,308.626 2056.77,308.626 "></polyline>
<path clip-path="url(#clip850)" d="M2086.31 327.038 L2086.31 345.945 L2080.42 345.945 L2080.42 296.738 L2086.31 296.738 L2086.31 302.148 Q2088.16 298.966 2090.96 297.438 Q2093.79 295.878 2097.71 295.878 Q2104.2 295.878 2108.24 301.034 Q2112.32 306.191 2112.32 314.593 Q2112.32 322.996 2108.24 328.152 Q2104.2 333.309 2097.71 333.309 Q2093.79 333.309 2090.96 331.781 Q2088.16 330.221 2086.31 327.038 M2106.24 314.593 Q2106.24 308.132 2103.56 304.472 Q2100.92 300.78 2096.27 300.78 Q2091.63 300.78 2088.95 304.472 Q2086.31 308.132 2086.31 314.593 Q2086.31 321.055 2088.95 324.747 Q2091.63 328.407 2096.27 328.407 Q2100.92 328.407 2103.56 324.747 Q2106.24 321.055 2106.24 314.593 Z" fill="#000000" fill-rule="nonzero" fill-opacity="1"></path><path clip-path="url(#clip850)" d="M2145.48 302.148 L2145.48 282.86 L2151.34 282.86 L2151.34 332.386 L2145.48 332.386 L2145.48 327.038 Q2143.64 330.221 2140.8 331.781 Q2138 333.309 2134.05 333.309 Q2127.59 333.309 2123.52 328.152 Q2119.48 322.996 2119.48 314.593 Q2119.48 306.191 2123.52 301.034 Q2127.59 295.878 2134.05 295.878 Q2138 295.878 2140.8 297.438 Q2143.64 298.966 2145.48 302.148 M2125.52 314.593 Q2125.52 321.055 2128.17 324.747 Q2130.84 328.407 2135.49 328.407 Q2140.13 328.407 2142.81 324.747 Q2145.48 321.055 2145.48 314.593 Q2145.48 308.132 2142.81 304.472 Q2140.13 300.78 2135.49 300.78 Q2130.84 300.78 2128.17 304.472 Q2125.52 308.132 2125.52 314.593 Z" fill="#000000" fill-rule="nonzero" fill-opacity="1"></path><path clip-path="url(#clip850)" d="M2181.45 282.86 L2181.45 287.73 L2175.85 287.73 Q2172.69 287.73 2171.45 289.003 Q2170.24 290.276 2170.24 293.587 L2170.24 296.738 L2179.89 296.738 L2179.89 301.289 L2170.24 301.289 L2170.24 332.386 L2164.36 332.386 L2164.36 301.289 L2158.75 301.289 L2158.75 296.738 L2164.36 296.738 L2164.36 294.255 Q2164.36 288.303 2167.12 285.598 Q2169.89 282.86 2175.91 282.86 L2181.45 282.86 Z" fill="#000000" fill-rule="nonzero" fill-opacity="1"></path><path clip-path="url(#clip850)" d="M2179.82 311.92 L2196.98 311.92 L2196.98 317.14 L2179.82 317.14 L2179.82 311.92 Z" fill="#000000" fill-rule="nonzero" fill-opacity="1"></path><path clip-path="url(#clip850)" d="M2226.96 302.212 Q2225.98 301.639 2224.8 301.385 Q2223.65 301.098 2222.25 301.098 Q2217.29 301.098 2214.61 304.345 Q2211.97 307.559 2211.97 313.607 L2211.97 332.386 L2206.08 332.386 L2206.08 296.738 L2211.97 296.738 L2211.97 302.276 Q2213.82 299.029 2216.78 297.47 Q2219.74 295.878 2223.97 295.878 Q2224.58 295.878 2225.31 295.974 Q2226.04 296.037 2226.93 296.197 L2226.96 302.212 Z" fill="#000000" fill-rule="nonzero" fill-opacity="1"></path></svg>